<svg xmlns="http://www.w3.org/2000/svg" width="48" height="48" viewBox="0 0 48 48"><g transform="translate(0 -1004.362)"><circle cx="24" cy="1028.362" r="24" fill="#25b39e"/><g transform="translate(-1339.5 -51)"><rect width="31" height="22" x="1348" y="1068.362" fill="#e9eded" rx="0" ry="0"/><rect width="30.984" height="2.5" x="1348" y="1068.362" fill="#34485c"/><path fill="none" stroke="#435e78" stroke-linecap="square" stroke-linejoin="round" d="M1377.5 1068.8709l0 1.4917M1375.5 1068.8709l0 1.4917M1373.5 1068.8709l0 1.4917"/><rect width="27" height="15" x="1350" y="1073.362" fill="#fcd062"/><path fill="none" stroke="#4bbfeb" stroke-linecap="square" d="M1350.5 1084.3622l2.4844 0 5.0078-5 4.005 2 5.9559-4 5.0469 2 3.5 0 0 0M1353 1084.8622l0 3M1358 1079.8622l0 8M1362 1081.8622l0 6"/><path fill="none" stroke="#4bbfeb" stroke-width="2" d="m 1368,1077.8622 0,8.2765"/><path fill="none" stroke="#4bbfeb" stroke-linecap="square" d="m 1373,1079.8622 0,8"/><circle cx="5.5" cy="21.5" r=".5" fill="#f05542" transform="matrix(2 0 0 2 1350.954 1038.232)"/><circle cx="5.5" cy="21.5" r=".5" fill="#f05542" transform="matrix(2 0 0 2 1341.969 1041.294)"/><path fill="none" stroke="#4bbfeb" stroke-width="2" d="m 1363.7505,1080.6951 4.2026,-2.7391 5.6214,2"/><circle cx="5.5" cy="21.5" r=".5" fill="#60c5b8" transform="translate(1343.624 983.736) scale(4.42832)"/><circle cx="5.5" cy="21.5" r=".5" fill="#60c5b8" transform="matrix(2 0 0 2 1346.992 1036.448)"/><path fill="#f05542" d="m 1364.1886,1085.6006 -3.9212,6.7916 c -0.277,0.4798 -0.1137,1.0891 0.3661,1.3661 0.4798,0.277 1.089,0.1137 1.366,-0.3661 l 3.9212,-6.7916"/><path fill="#e54141" d="m 1364.1842,1085.6122 -0.5937,1.0313 c 0.3895,0.3305 1.1251,0.8342 1.75,0.9687 l 0.5937,-1 z"/><path fill="#34485c" d="m 1368.8553,1073.361 c 1.1282,0.029 2.2664,0.3335 3.3125,0.9375 3.3475,1.9327 4.4952,6.215 2.5625,9.5625 -1.9327,3.3475 -6.215,4.4952 -9.5625,2.5625 -3.3475,-1.9327 -4.4952,-6.215 -2.5625,-9.5625 1.3287,-2.3014 3.768,-3.5645 6.25,-3.5 z m 0.375,2.5313 c -1.74,-0.216 -3.5369,0.6047 -4.4688,2.2187 -1.2424,2.152 -0.4957,4.9138 1.6563,6.1563 2.152,1.2424 4.9138,0.4957 6.1562,-1.6563 1.2425,-2.152 0.4958,-4.8826 -1.6562,-6.125 -0.538,-0.3106 -1.1075,-0.5218 -1.6875,-0.5937 z"/><circle cx="23" cy="18" r="4" fill="#fff" opacity=".341" transform="translate(1342.793 1060.11) scale(1.125)"/><path fill="none" stroke="#fff" stroke-linecap="round" stroke-linejoin="round" stroke-width="1.143" d="m 25.605101,14.964633 a 4,4 0 0 1 1.278032,2.075535" transform="matrix(.875 0 0 .875 1348.543 1064.61)"/></g></g></svg>