<?xml version="1.0" encoding="UTF-8"?><svg xmlns="http://www.w3.org/2000/svg" viewBox="0 0 300 300" x="0px" y="0px" width="300px" height="300px" version="1.1" xmlns:xlink="http://www.w3.org/1999/xlink"><title>Investment Colored Icons</title><g id="Layer_2" data-name="Layer 2"><path d="M239.22,163.68a14.55,14.55,0,0,0-3.06-1.11c-1.53-.51-3-.34-6.21-.85s-10.56-1.27-18.39-4.42-16.93-12-19.57-13.87-7.32.51-7.32.51-1.3-36.94-1.62-38.47-2.81-5.3-7.59-7.92S148,94.49,148,94.49s-.38-15.38-3.89-19.15-15.51-4-24.51-4.09-16.09,1.86-18.2,5.3S99,94.49,99,94.49s-11,.89-23.68.89-13.66,16.73-13.66,16.73.64,36.38,1.15,47.23,4.21,14,4.21,14L141,173s-3.34,2.17,10.32,31.4a101.91,101.91,0,0,0,38.89,43s26.59-21.45,35.45-33.62S239.39,163.94,239.22,163.68ZM114,95V85.43h19.41v9l.21.51Z" style="fill:#2a94f4;"/><path d="M191.69,181.08s11.19-7.48,15.83-6.21,8.85,5.7,8.85,5.7-2.85,15.2-3.53,16.09-7.19,7.62-7.36,7.74-16,15.71-16,15.71l-23.54-25s-4.93-10.46-2.38-13.53,12.26-5.1,12.26-5.1,7.4.75,8,1S191.69,181.08,191.69,181.08Z" style="fill:#cce9ff;"/><polygon points="107.22 138.15 117.69 138.15 118.84 126.15 130.97 126.15 129.95 138.15 141.82 139.04 140.95 150.28 128.8 151.17 128.67 161.76 117.82 162.53 116.92 150.66 106.2 150.53 107.22 138.15" style="fill:#cce9ff;"/><path d="M100.33,94.36l11-.51,1-10.34h22.47L135.5,96,145,95l3.38-6.09s-2.89-14-7.44-15.45a52.2,52.2,0,0,0-14-2.17c-3.51,0-9.32.52-9.32.52a61.56,61.56,0,0,0-8.75,0c-2.87.38-2.17-.07-3.64.89a11.91,11.91,0,0,0-4.08,4.28,19.69,19.69,0,0,0-.83,4.72S100,85,100,88,100.33,94.36,100.33,94.36Z" style="fill:#cce9ff;"/></g><g id="Layer_1" data-name="Layer 1"><path d="M141.81,135.17h-9.07V126.1a3,3,0,0,0-3-3H117.63a3,3,0,0,0-3,3v9.07h-9.07a3,3,0,0,0-3,3v12.09a3,3,0,0,0,3,3h9.07v9.07a3,3,0,0,0,3,3h12.09a3,3,0,0,0,3-3V153.3h9.07a3,3,0,0,0,3-3V138.19a3,3,0,0,0-3-3Zm-3,12.09h-9.06a3,3,0,0,0-3,3v9.07h-6v-9.07a3,3,0,0,0-3-3h-9.07v-6h9.07a3,3,0,0,0,3-3v-9.06h6v9.06a3,3,0,0,0,3,3h9.06Zm0,0" style="fill:#0b4870;"/><path d="M238.51,159.35A62.23,62.23,0,0,1,194.22,141l-1.92-1.92a3,3,0,0,0-4.28,0l-.88.88V108A15.13,15.13,0,0,0,172,92.86H150.87V83.79a15.13,15.13,0,0,0-15.11-15.11H111.59A15.13,15.13,0,0,0,96.48,83.79v9.07H75.32A15.13,15.13,0,0,0,60.21,108v60.44a9.07,9.07,0,0,0,9.07,9.07h70.41a98,98,0,0,0,49,72.14,3,3,0,0,0,3,0,98,98,0,0,0,49.89-85.31v-1.94a3,3,0,0,0-3-3Zm-136-75.56a9.07,9.07,0,0,1,9.07-9.06h24.17a9.07,9.07,0,0,1,9.07,9.06v9.07h-6.05V83.79a3,3,0,0,0-3-3H111.59a3,3,0,0,0-3,3v9.07h-6Zm30.22,3v6H114.61v-6ZM66.25,108a9.07,9.07,0,0,1,9.07-9.07H172a9.07,9.07,0,0,1,9.06,9.07v3H66.25Zm72.53,54.4v1.94c0,2.39.11,4.76.28,7.12H69.28a3,3,0,0,1-3-3V117H181.09v28.44a62.19,62.19,0,0,1-39.28,13.87,3,3,0,0,0-3,3Zm51.38,81.13a91.94,91.94,0,0,1-45.33-78.17,68.24,68.24,0,0,0,45.33-19.84,68.24,68.24,0,0,0,45.33,19.84,91.94,91.94,0,0,1-45.33,78.17Zm0,0" style="fill:#0b4870;"/><path d="M187,176.08a15.84,15.84,0,0,0-22.41,22.4L188,221.92a3,3,0,0,0,4.28,0l23.44-23.44a15.84,15.84,0,1,0-22.41-22.4l-3.17,3.17Zm10.62,4.27a9.8,9.8,0,1,1,13.86,13.86l-21.31,21.3-21.31-21.3a9.8,9.8,0,1,1,13.86-13.86l5.31,5.31a3,3,0,0,0,4.28,0Zm0,0" style="fill:#0b4870;"/></g></svg>